# xmcd
#
# Track frame offsets: 
#        150
#        19378
#        52125
#        65605
#        86847
#        143428
#        167781
#        187497
#
# Disc length: 2757 seconds
#
# Revision: 0
# Processed by: cddbd v1.5.2PL0 Copyright (c) Steve Scherf et al.
# Submitted via: ExactAudioCopyFreeDBPlugin 1.0
#
DISCID=790ac308
DTITLE=Tree - Tree
DYEAR=2010
DGENRE=
TTITLE0=Cool Breeze
TTITLE1=Swing in B
TTITLE2=Time
TTITLE3=Darling
TTITLE4=Eastern Blues
TTITLE5=Two Oceans
TTITLE6=The Sun
TTITLE7=River
EXTD=
EXTT0=
EXTT1=
EXTT2=
EXTT3=
EXTT4=
EXTT5=
EXTT6=
EXTT7=
PLAYORDER=
